<svg width="263" height="241" viewBox="0 0 263 241" fill="none" xmlns="http://www.w3.org/2000/svg">
<g filter="url(#filter0_d_8102_1474)">
<path d="M245.042 120.589C245.042 120.589 268.9 151.704 207.454 192.424C146.006 233.142 60.3402 246.615 43.293 202.766C26.2458 158.915 42.162 171.898 107.66 164.393C173.157 156.888 216.767 88.7832 227.305 96.2059C237.838 103.631 245.042 120.589 245.042 120.589Z" fill="#F9A332"/>
<path d="M96.1914 224.205C77.7001 224.205 62.018 219.842 52.0107 210.192C56.4382 208.101 59.9434 205.979 62.8722 204.207C66.2104 202.187 68.9143 200.55 70.5936 200.55C70.7733 200.55 70.9417 200.569 71.0975 200.608C71.9506 200.823 72.849 201.747 73.8435 203.433C76.7215 208.309 80.6505 210.975 84.948 210.975C85.1208 210.975 85.2938 210.97 85.4678 210.962C90.0171 210.742 94.2128 207.438 96.6919 202.125C98.1621 198.974 100.082 197.06 102.56 196.273C103.479 195.982 104.504 195.836 105.63 195.836C109.767 195.836 115.293 197.798 122.113 201.699C122.14 201.713 122.163 201.727 122.189 201.741C125.025 203.426 128.206 204.448 131.964 204.545C132.272 204.554 132.575 204.557 132.874 204.557C143.269 204.557 148.174 199.804 151.138 196.931C151.91 196.183 153.077 195.053 153.47 195.021C153.474 195.021 153.819 195.072 154.601 195.854C151.113 199.941 143.949 207.863 133.004 207.863C128.308 207.863 122.916 206.403 116.822 202.557C114.144 200.868 111.402 200.163 108.925 200.163C101.85 200.163 96.9293 205.921 101.819 210.959C103.829 213.03 107.868 213.75 112.511 213.75C120.015 213.75 129.095 211.869 133.723 210.771C143.014 208.502 152.485 205.487 161.897 201.807C163.618 202.573 165.379 202.978 167.042 202.978C168.688 202.978 170.238 202.581 171.56 201.746C172.687 201.034 174.486 199.425 174.948 196.255C186.159 191.099 197.131 185.03 207.453 178.19C231.431 162.299 242.418 147.874 246.902 136.187C246.925 138.027 246.785 140.029 246.413 142.181C245.808 145.687 244.637 149.236 242.918 152.815C236.942 162.818 226.145 174.314 207.453 186.701C172.507 209.859 129.726 224.205 96.1914 224.205ZM172.993 186.429C172.884 186.182 172.769 185.933 172.65 185.679C172.263 184.858 171.911 183.994 171.597 183.089C171.652 183.089 171.702 183.089 171.756 183.089C183.706 183.089 188.253 177.179 193.762 170.02C195.709 167.489 197.721 164.873 200.304 162.116C204.962 157.142 212.094 156.839 218.992 156.546C223.529 156.354 227.877 156.169 231.184 154.535C223.146 162.516 212.565 154.528 206.234 164.552C199.033 175.954 192.63 183.955 179.029 185.555C176.818 185.815 174.816 186.103 172.993 186.429ZM236.72 145.381C236.754 144.766 236.754 144.122 236.725 143.449C236.484 138.021 236.455 134.317 237.045 132.627C237.362 131.713 237.775 131.472 239.954 130.523C241.387 129.897 243.223 129.096 245.515 127.666C245.846 128.672 246.151 129.81 246.394 131.073C237.406 133.231 240.91 135.425 236.72 145.381Z" fill="#BF6700"/>
<path d="M225.385 98.3489C224.763 98.3489 223.22 98.7054 219.847 101.073C215.916 103.833 210.803 108.392 204.881 113.667C183.188 132.999 150.404 162.214 107.967 167.076C92.4502 168.855 79.7479 169.487 69.5408 169.995C53.7841 170.781 43.3744 171.298 40.64 175.517C38.0228 179.553 40.8151 188.937 45.8108 201.788C49.916 212.349 58.4476 219.75 71.1679 223.789C104.104 234.244 160.791 220.107 205.961 190.174C229.723 174.427 243.711 157.832 246.414 142.181C248.531 129.918 243.122 122.531 242.891 122.224C242.759 122.049 242.641 121.848 242.556 121.647C242.462 121.425 235.5 105.287 225.748 98.4151C225.743 98.4129 225.645 98.3489 225.385 98.3489ZM96.2393 232.657C86.3324 232.658 77.3557 231.42 69.534 228.936C55.1784 224.38 45.5033 215.904 40.7766 203.745C34.7288 188.19 32.1942 178.617 36.1076 172.579C40.346 166.041 50.6201 165.529 69.2718 164.602C79.4022 164.097 92.0085 163.469 107.353 161.711C148.09 157.043 180.105 128.513 201.29 109.636C215.457 97.0103 223.258 90.0547 228.858 94C239.257 101.329 246.362 116.876 247.404 119.252C248.6 120.97 253.993 129.613 251.77 142.892C248.852 160.356 234.441 177.779 208.946 194.675C186.764 209.375 160.756 220.949 135.714 227.266C121.478 230.856 108.183 232.657 96.2393 232.657Z" fill="#6D184E"/>
<path d="M32.0091 175.153C32.0091 175.153 16.4072 172.753 15.0068 183.353C13.6069 193.955 30.809 189.755 30.6091 197.956C30.409 206.157 30.209 216.959 47.8121 209.558C65.4142 202.157 70.2145 192.778 75.816 202.269C81.4162 211.758 90.4179 210.158 94.6179 201.156C98.8193 192.155 107.076 190.463 123.252 199.711C131.906 204.658 136.602 197.61 142.478 190.56C147.581 184.435 153.575 178.31 163.829 180.054C185.882 183.804 186.833 173.153 198.633 160.551C210.435 147.949 235.239 161.751 234.439 143.547C233.639 125.346 235.539 132.198 246.489 124.246C257.442 116.294 257.291 97.6916 235.838 99.3431C214.385 100.993 161.029 177.953 32.0091 175.153Z" fill="#48C75A"/>
<path d="M234.622 128.319C235.431 124.956 239.296 122.91 247.315 116.67C248.73 115.567 250.147 113.736 251.338 111.897C251.046 115.715 248.768 119.764 245.145 122.395C242.139 124.575 239.914 125.545 238.124 126.325C236.65 126.967 235.503 127.571 234.622 128.319Z" fill="#B6E9BD"/>
<path d="M178.383 177.647C185.447 173.817 188.811 165.712 196.646 156.745C206.519 145.445 224.9 152.667 232.02 146.351C231.81 147.599 231.38 148.571 230.718 149.291C228.642 151.553 223.86 151.757 218.797 151.971C211.345 152.287 202.898 152.647 196.962 158.986C194.23 161.904 192.054 164.732 190.134 167.227C186.227 172.303 183.365 176.026 178.383 177.647Z" fill="#B6E9BD"/>
<path d="M38.1304 209.744C36.8885 209.744 35.8941 209.497 35.1686 209.001C32.6714 207.298 32.7967 202.15 32.8974 198.012C33.0329 192.479 27.7695 190.842 23.9274 189.648C18.8474 188.068 16.8234 187.084 17.2766 183.654C17.5189 181.82 18.3049 180.427 19.6798 179.392C21.4979 178.024 24.1386 177.46 26.5435 177.279C33.3596 187.866 43.7759 193.751 55.9471 193.751C57.4897 193.751 59.0626 193.656 60.6571 193.465C75.7356 191.402 90.9002 188.184 106.037 183.843C106.626 184.647 107.206 185.445 107.778 186.234C109.314 188.348 110.803 190.4 112.309 192.318C109.875 191.61 107.648 191.259 105.615 191.259C104.017 191.259 102.538 191.476 101.176 191.91C97.4611 193.089 94.557 195.874 92.5446 200.188C90.7963 203.934 88.0684 206.252 85.2481 206.389C85.1678 206.392 85.0888 206.393 85.0085 206.393C82.3677 206.393 79.8151 204.54 77.7878 201.105C76.1165 198.273 74.3458 196.703 72.2158 196.168C71.6768 196.032 71.1378 195.969 70.5943 195.969C67.6437 195.969 64.5465 197.841 60.5021 200.289C57.0071 202.404 52.6578 205.037 46.9241 207.447C43.2956 208.973 40.326 209.744 38.1304 209.744ZM171.969 178.548C171.465 178.548 170.944 178.535 170.405 178.509C169.353 172.846 169.534 166.157 171.197 159.169C190.875 150.069 209.235 139.388 226.016 127.264C234.162 121.172 238.916 112.925 239.997 103.636C240.135 103.607 240.269 103.58 240.405 103.553C241.578 110.508 240.396 119.585 231.037 128.147C212.235 145.348 191.031 149.949 181.429 159.751C175.644 165.658 175.016 173.231 175.43 178.319C174.372 178.47 173.225 178.548 171.969 178.548Z" fill="#539256"/>
<path d="M28.4627 177.208C25.6614 177.208 22.0002 177.646 19.6792 179.392C18.3045 180.427 17.5183 181.821 17.2759 183.655C16.823 187.084 18.8467 188.068 23.9269 189.648C27.7688 190.842 33.0323 192.48 32.8967 198.012C32.7962 202.15 32.6706 207.299 35.168 209.002C37.1782 210.373 41.2429 209.836 46.9233 207.448C52.657 205.038 57.0062 202.405 60.5014 200.289C65.2904 197.391 68.7527 195.298 72.215 196.168C74.3451 196.704 76.1157 198.273 77.787 201.105C79.8752 204.643 82.5216 206.504 85.2472 206.389C88.0677 206.252 90.7956 203.935 92.5437 200.189C94.5562 195.874 97.4602 193.089 101.175 191.91C106.816 190.116 114.409 192.02 124.387 197.724C130.4 201.162 133.648 197.703 139.34 190.767C144.855 184.042 151.718 175.672 164.212 177.797C179.942 180.475 183.561 175.768 190.133 167.228C192.053 164.733 194.229 161.904 196.962 158.987C202.897 152.648 211.345 152.288 218.797 151.972C223.859 151.757 228.641 151.554 230.716 149.291C231.796 148.114 232.267 146.268 232.15 143.649C231.587 130.825 232.256 128.882 238.125 126.326C239.913 125.545 242.141 124.574 245.145 122.394C250.104 118.792 252.543 112.539 250.817 107.848C249.12 103.23 243.864 101.018 236.013 101.626C230.757 102.029 222.16 108.398 211.274 116.463C195.801 127.926 174.608 143.628 145.409 156.275C110.942 171.205 72.7653 178.33 31.9589 177.442C31.8605 177.44 31.7622 177.43 31.6638 177.417C30.9598 177.31 29.8107 177.208 28.4627 177.208ZM38.1071 214.311C35.9115 214.311 34.0799 213.802 32.5882 212.784C28.0333 209.677 28.1924 203.148 28.3203 197.9C28.3632 196.125 26.9212 195.374 22.5664 194.02C18.2527 192.679 11.7337 190.65 12.7373 183.055C13.1436 179.978 14.5581 177.511 16.9405 175.724C22.2974 171.707 30.8718 172.687 32.1961 172.868C124.79 174.834 177.216 135.995 208.55 112.785C220.92 103.621 229.092 97.5667 235.661 97.0598C249.765 95.9793 253.964 103.14 255.116 106.267C257.562 112.919 254.499 121.259 247.835 126.097C244.425 128.573 241.841 129.699 239.953 130.523C237.775 131.472 237.363 131.713 237.044 132.628C236.455 134.317 236.485 138.02 236.725 143.449C236.895 147.344 236.035 150.268 234.091 152.386C230.733 156.048 225.028 156.29 218.991 156.546C212.094 156.839 204.961 157.141 200.305 162.116C197.721 164.873 195.709 167.489 193.761 170.02C187.129 178.64 181.89 185.448 163.442 182.311C153.571 180.632 148.136 187.259 142.877 193.67C137.671 200.02 131.765 207.216 122.113 201.698C113.433 196.736 106.854 194.912 102.56 196.273C100.082 197.06 98.162 198.974 96.6919 202.124C94.2127 207.438 90.017 210.742 85.4676 210.962C80.9681 211.186 76.8378 208.506 73.8432 203.433C72.8489 201.747 71.9506 200.823 71.0974 200.608C69.486 200.205 66.5672 201.97 62.8721 204.207C59.2493 206.399 54.7407 209.128 48.6986 211.668C44.5029 213.432 40.9921 214.311 38.1071 214.311Z" fill="#6D184E"/>
<path d="M199.069 61.5341C196.287 62.6469 193.896 64.4027 191.933 66.6509C179.987 74.8752 153.964 91.4351 120.947 104.484C88.0503 117.818 57.7877 123.788 43.4662 126.078C40.4942 125.808 37.5527 126.187 34.7708 127.3C22.0809 132.379 17.5187 150.802 24.5816 168.445C31.6441 186.089 45.672 192.957 60.3471 191.196C93.003 186.731 122.19 177.328 146.061 167.219C170.314 158.065 197.929 144.731 224.644 125.431C236.483 116.58 241.897 101.93 234.835 84.2844C227.772 66.6406 211.759 56.4566 199.069 61.5341Z" fill="#DB2839"/>
<path d="M55.8546 189.182C42.7557 189.182 32.2705 181.495 26.7063 167.595C26.2825 166.536 25.9007 165.471 25.5605 164.402C26.4328 164.1 27.3279 163.801 28.2397 163.512C27.5933 166.464 27.4838 169.498 29.1324 172.004C30.7732 174.498 33.7382 175.914 38.1962 176.334C38.8493 176.395 39.4867 176.424 40.1092 176.424C49.3628 176.424 55.3179 169.938 59.7407 165.121C62.4494 162.171 65.0076 159.385 67.106 159.385C67.1219 159.385 67.1377 159.385 67.1524 159.385C68.3784 159.409 69.8304 160.401 71.469 162.332C77.2748 169.181 84.8685 172.905 92.9638 172.904C93.3276 172.904 93.6936 172.897 94.0599 172.881C95.0384 172.841 96.0068 172.745 96.9629 172.596C99.2069 175.019 101.223 177.483 103.099 179.919C88.7353 183.959 74.3573 186.97 60.074 188.924C58.64 189.096 57.2332 189.182 55.8546 189.182ZM66.3749 165.041C66.019 165.041 65.7049 165.23 65.4134 165.653C64.2573 167.328 61.7882 169.671 59.1892 171.92C57.4785 173.4 57.9891 176.141 60.0944 176.968C63.8584 178.448 67.871 179.162 71.9876 179.162C73.4464 179.162 74.9188 179.073 76.3969 178.895C76.4419 178.888 76.4872 178.883 76.5324 178.876C79.389 178.484 80.058 174.659 77.5188 173.294C71.0474 169.815 68.1727 165.041 66.3749 165.041ZM172.929 153.298C175.676 145.527 180.28 137.643 187.074 130.603C188.118 130.69 189.178 130.743 190.243 130.743C191.17 130.743 192.099 130.702 193.018 130.609C190.635 133.344 188.554 136.007 186.803 138.407C185.282 140.491 186.94 143.125 189.154 143.125C189.572 143.125 190.013 143.031 190.455 142.818C196.794 139.786 203.234 136.469 209.72 132.843C198.107 140.324 185.815 147.157 172.929 153.298ZM207.886 116.841C208.021 116.366 208.138 115.899 208.239 115.445C219.067 109.767 228.096 106.595 235.265 104.739C235.168 105.304 235.055 105.864 234.926 106.419C224.717 107.038 215.606 111.274 207.886 116.841Z" fill="#A92142"/>
<path d="M41.6367 128.283C39.5361 128.283 37.5191 128.664 35.6216 129.425C30.1864 131.601 26.2337 136.675 24.4912 143.711C22.6808 151.022 23.4674 159.502 26.7071 167.594C32.8565 182.957 45.0165 190.729 60.0749 188.923C88.3521 185.056 116.994 177.042 145.169 165.112C145.196 165.099 145.223 165.088 145.252 165.078C173.879 154.273 200.139 140.308 223.305 123.576C235.419 114.517 238.858 100.497 232.708 85.1353C226.128 68.6912 211.416 59.0556 199.919 63.6609L199.07 61.5344L199.919 63.6609C197.538 64.6123 195.432 66.1253 193.656 68.1564C193.53 68.2994 193.389 68.4259 193.231 68.5357C180.698 77.164 154.751 93.5853 121.79 106.612C88.9623 119.92 58.8523 125.937 43.8279 128.339C43.6391 128.368 43.4469 128.374 43.2583 128.358C42.7124 128.308 42.1723 128.283 41.6367 128.283ZM55.9471 193.751C40.9948 193.752 28.6904 184.869 22.4561 169.296C18.8639 160.321 18.0081 150.843 20.0469 142.611C22.1531 134.105 27.0799 127.912 33.92 125.174C36.8906 123.984 40.0727 123.516 43.3802 123.773C58.3032 121.373 87.8618 115.424 120.089 102.361C152.444 89.5748 177.946 73.483 190.404 64.9231C192.62 62.4526 195.248 60.5997 198.218 59.4079C212.059 53.8699 229.44 64.6454 236.959 83.4337C243.836 100.614 239.745 116.998 226.016 127.265C202.506 144.248 175.902 158.399 146.91 169.345C118.379 181.424 89.359 189.54 60.6569 193.464C59.0624 193.656 57.4895 193.751 55.9471 193.751Z" fill="#6D184E"/>
<path d="M28.8089 146.549C28.8089 146.549 13.4066 152.75 9.60633 163.352C7.34848 169.649 13.843 166.136 23.7228 162.623C30.4757 160.222 38.8093 157.82 47.0109 158.551C54.4995 159.218 57.3708 156.973 59.4556 154.728C62.9948 150.915 64.2659 147.101 82.0161 157.55C110.221 174.153 112.821 201.757 132.023 202.256C139.714 202.458 144.131 199.978 147.129 197.5C151.613 193.79 152.91 190.08 157.226 195.357C164.428 204.157 178.079 202.557 170.578 186.655C163.077 170.752 167.828 135.747 201.834 116.345C235.837 96.9424 254.04 101.142 255.641 98.3431C257.242 95.5417 249.639 81.1387 225.436 80.7401C201.233 80.3393 140.425 142.149 28.8089 146.549Z" fill="#FCAF15"/>
<path d="M132.834 199.978C132.587 199.978 132.338 199.975 132.083 199.968C123.242 199.737 118.31 192.946 111.483 183.544C108.715 179.731 105.653 175.514 101.935 171.289C106.727 169.494 110.955 166.261 114.083 161.882C117.042 157.74 119.604 156.157 122.77 156.157C125.839 156.157 129.473 157.646 134.58 159.739C137.808 161.059 141.465 162.557 145.723 163.93C148.496 164.822 151.217 165.262 153.815 165.262C158.435 165.262 162.668 163.872 166.115 161.168C165.646 162.049 165.229 162.936 164.859 163.823C160.716 166.041 156.643 166.866 152.726 166.866C147.08 166.866 141.761 165.152 137.039 163.439C132.316 161.725 128.19 160.012 124.926 160.012C123.109 160.012 121.559 160.543 120.323 161.901C115.91 166.745 111.557 171.583 108.897 173.075C116.797 183.828 121.622 192.872 132.502 193.155C132.768 193.161 133.028 193.166 133.286 193.166C140.629 193.166 144.793 190.402 147.6 187.64C150.405 184.877 151.854 182.115 153.766 182.115C154.726 182.115 155.803 182.811 157.227 184.551C159.795 187.69 163.182 189.502 166.139 189.815C167.449 193.742 167.228 196.544 166.097 198.318C163.863 197.984 161.137 196.52 158.999 193.907C157.739 192.366 156.001 190.58 153.733 190.45C153.647 190.446 153.559 190.442 153.472 190.442C151.263 190.442 149.653 191.995 147.954 193.642C145.176 196.335 141.397 199.978 132.834 199.978ZM11.6553 164.434C11.6861 164.339 11.721 164.235 11.7613 164.123C13.1475 160.257 16.3496 156.987 19.6686 154.465C21.7501 154.422 23.9061 154.258 26.0407 154.096C27.3616 153.997 28.6092 153.901 29.833 153.835C29.9538 153.828 30.0624 153.825 30.1596 153.825C30.4736 153.825 30.6725 153.856 30.7856 153.883C30.8974 154.666 30.277 156.691 29.7663 158.278C25.5728 159.446 21.697 160.905 18.3589 162.163C16.017 163.045 13.2277 164.095 11.6553 164.434Z" fill="#D18126"/>
<path d="M47.29 158.571C59.5467 159.558 59.1819 152.601 63.7849 151.076C55.071 149.122 57.3948 157.571 47.29 158.571Z" fill="#F8CE36"/>
<path d="M9.37598 166.258C11.322 169.265 26.1263 159.357 41.7853 158.48C28.975 157.702 16.0056 164.257 9.37598 166.258Z" fill="#F8CE36"/>
<path d="M167.041 189.866C166.746 189.866 166.443 189.849 166.137 189.817C165.809 188.833 165.384 187.78 164.852 186.654C162.231 181.096 161.284 172.413 164.859 163.824C165.167 163.657 165.477 163.485 165.786 163.304C164.515 172.352 165.423 181.089 168.508 187.631C168.81 188.271 169.078 188.893 169.309 189.494C168.619 189.743 167.852 189.866 167.041 189.866Z" fill="#FED78A"/>
<path d="M167.051 198.391C166.746 198.391 166.426 198.367 166.096 198.318C167.225 196.545 167.448 193.742 166.136 189.817C166.442 189.849 166.744 189.867 167.04 189.867C167.851 189.867 168.618 189.744 169.309 189.493C170.913 193.634 170.868 196.768 169.116 197.876C168.569 198.219 167.861 198.391 167.051 198.391ZM164.857 163.823C165.226 162.937 165.644 162.05 166.112 161.169C166.117 161.164 166.122 161.161 166.127 161.157C166 161.874 165.886 162.589 165.785 163.304C165.477 163.485 165.166 163.659 164.857 163.823Z" fill="#E8C093"/>
<path d="M173.996 140.087C173.77 137.924 173.312 135.707 172.614 133.467C171.592 130.184 172.185 129.447 172.212 129.417C172.479 129.109 173.19 128.993 174.132 128.993C175.931 128.993 178.569 129.417 180.544 129.735C180.828 129.78 181.117 129.826 181.412 129.873C178.405 133.29 175.97 136.743 173.996 140.087Z" fill="#D18126"/>
<path d="M65.6467 148.509C69.2085 148.509 74.4212 150.423 83.1775 155.578C97.1478 163.801 105.096 174.749 111.483 183.545C118.309 192.946 123.241 199.738 132.082 199.969C141.179 200.187 145.096 196.413 147.953 193.642C149.718 191.932 151.389 190.321 153.734 190.45C156 190.581 157.739 192.367 158.999 193.907C162.292 197.931 166.974 199.228 169.116 197.876C171.122 196.606 170.891 192.682 168.507 187.632C164.149 178.39 164.136 164.764 168.475 152.072C172.22 141.118 180.852 125.68 200.698 114.355C225.19 100.383 241.782 98.43 249.755 97.4926C251.134 97.3302 252.658 97.1506 253.496 96.96C253.325 96.1785 252.721 94.6133 250.991 92.6085C248.582 89.8158 241.264 83.2906 225.397 83.0287C218.034 82.8858 206.391 89.359 190.263 98.2915C156.107 117.2 104.529 145.758 29.3185 148.82C27.0945 149.789 14.8674 155.459 11.7609 164.124C11.7206 164.235 11.6856 164.339 11.655 164.434C13.2272 164.096 16.0165 163.045 18.3588 162.163C26.0256 159.275 36.5301 155.323 47.2143 156.27C54.47 156.92 56.4192 154.717 58.4815 152.388C60.4578 150.156 62.3437 148.509 65.6467 148.509ZM132.875 204.557C132.576 204.557 132.271 204.554 131.963 204.545C120.863 204.256 114.799 195.905 107.778 186.234C101.321 177.342 94.003 167.264 80.8554 159.523C73.7035 155.314 68.8379 153.205 65.9812 153.079C64.1348 153.009 63.4387 153.695 61.9088 155.423C59.5709 158.064 56.3661 161.678 46.8086 160.831C37.1616 159.97 27.2268 163.714 19.9723 166.447C13.5803 168.855 10.0584 170.183 7.91209 168.07C6.11627 166.303 7.1208 163.5 7.45117 162.579C11.5513 151.142 27.2867 144.695 27.9533 144.426C28.1975 144.329 28.4562 144.272 28.7184 144.262C103.068 141.33 154.206 113.019 188.044 94.2842C204.796 85.0118 216.9 78.3156 225.473 78.452C242.643 78.7356 252.829 85.9817 256.635 92.6691C257.544 94.269 258.885 97.2804 257.629 99.4779C256.588 101.299 254.483 101.545 250.29 102.039C242.615 102.942 226.649 104.821 202.969 118.334C171.469 136.306 165.048 169.561 172.649 185.678C177.693 196.374 173.569 200.478 171.56 201.746C167.102 204.563 160.027 202.393 155.455 196.805C154.065 195.108 153.476 195.022 153.47 195.021C153.078 195.053 151.911 196.183 151.14 196.931C148.174 199.803 143.271 204.557 132.875 204.557Z" fill="#6D184E"/>
<path d="M149.802 176.079C149.802 176.079 142.821 189.061 132.502 187.479C124.673 186.278 137.755 187.806 141.153 178.329C145.077 167.376 151.822 173.078 149.802 176.079Z" fill="#F8CE36"/>
<path d="M38.41 123.046C38.41 123.046 10.8059 124.546 7.50545 139.848C4.20518 155.15 18.6071 152.15 29.709 151.55C40.8102 150.95 19.2068 172.253 38.41 174.053C46.4377 174.806 51.7903 170.21 56.1577 165.614C62.2371 159.217 66.4047 152.82 73.2151 160.851C84.9163 174.653 103.219 173.154 112.22 160.552C121.222 147.95 128.722 156.051 146.425 161.752C164.128 167.453 176.13 152.451 170.429 134.147C167.598 125.061 173.716 126.328 181.659 127.594C189.717 128.879 199.652 130.163 204.032 120.646C212.733 101.743 194.131 98.443 216.335 93.9427C238.538 89.4404 248.139 87.9417 244.539 75.7905C240.939 63.6373 232.537 54.6367 204.332 66.6388C176.13 78.6389 150.625 131.148 38.41 123.046Z" fill="#48C75A"/>
<path d="M33.9771 160.137C35.167 156.468 36.1782 153.301 34.429 151.028C33.5206 149.846 32.0774 149.249 30.1351 149.249C29.9566 149.249 29.7734 149.253 29.5858 149.263C28.3124 149.332 26.9822 149.433 25.6952 149.531C23.3753 149.707 20.9357 149.892 18.6746 149.892C18.4137 149.892 18.1546 149.89 17.8989 149.886C19.443 144.366 22.3144 138.98 17.1837 138.98C17.0421 138.98 16.8942 138.982 16.7401 138.992C14.5563 139.109 12.2456 139.319 9.9668 139.466C11.1476 135.525 14.351 132.672 18.2078 130.605C18.649 132.856 19.1605 135.08 19.7402 137.278C28.9067 141.918 38.7909 145.075 49.1983 146.842C45.0353 150.416 40.6994 157.185 33.9771 160.137ZM80.0302 158.056C77.4437 158.056 74.8232 157.626 72.2605 156.742C70.8919 155.694 69.519 155.078 68.1188 154.876C65.3097 153.299 62.6396 151.115 60.2461 148.292C60.2135 148.254 60.1806 148.216 60.1478 148.177C63.4147 148.425 66.7244 148.55 70.0682 148.55C80.2788 148.55 90.823 147.404 101.551 145.184C100.792 145.975 100.027 146.908 99.2515 147.994C94.5982 154.51 87.4588 158.056 80.0302 158.056ZM140.844 150.42C138.529 150.42 136.055 150.029 133.458 149.193C125.31 146.57 119.322 143.437 114.356 142.049C122.405 139.78 130.514 136.935 138.625 133.547C138.658 133.532 138.692 133.518 138.726 133.504C138.734 133.5 138.744 133.496 138.754 133.492C138.781 133.482 138.801 133.474 138.827 133.462C138.837 133.458 138.847 133.454 138.859 133.45C138.883 133.44 138.909 133.428 138.934 133.418C138.942 133.414 138.95 133.412 138.958 133.408C138.99 133.393 139.024 133.379 139.057 133.367L139.059 133.365C139.095 133.351 139.131 133.335 139.165 133.321C139.167 133.319 139.169 133.319 139.171 133.319C139.204 133.305 139.234 133.291 139.268 133.277C139.272 133.275 139.28 133.273 139.286 133.269C139.314 133.256 139.345 133.244 139.375 133.232C139.379 133.23 139.385 133.228 139.389 133.226C139.421 133.212 139.455 133.198 139.49 133.184L139.492 133.182C139.564 133.152 139.633 133.121 139.705 133.091C139.707 133.091 139.711 133.089 139.713 133.089C139.746 133.075 139.778 133.061 139.81 133.047C139.814 133.045 139.816 133.045 139.82 133.043C139.963 132.982 140.104 132.924 140.245 132.862L140.249 132.86C140.572 132.723 140.892 132.586 141.212 132.447L141.218 132.445C141.359 132.384 141.5 132.322 141.643 132.261L141.647 132.257C141.789 132.197 141.928 132.136 142.071 132.076C142.075 132.072 142.075 132.072 142.079 132.07C142.22 132.007 142.357 131.949 142.498 131.886C142.502 131.884 142.504 131.884 142.508 131.882C142.538 131.868 142.572 131.854 142.602 131.84C142.609 131.838 142.609 131.838 142.613 131.836C142.715 131.792 142.822 131.743 142.925 131.699C142.929 131.697 142.933 131.695 142.937 131.691C142.967 131.679 142.997 131.667 143.026 131.653C143.03 131.651 143.038 131.649 143.042 131.645C143.078 131.631 143.106 131.616 143.14 131.602H143.142C143.211 131.57 143.281 131.54 143.35 131.51C143.356 131.506 143.362 131.504 143.368 131.502C143.394 131.49 143.424 131.475 143.451 131.465C143.459 131.461 143.465 131.459 143.471 131.455C143.497 131.443 143.529 131.431 143.555 131.419C143.561 131.415 143.568 131.413 143.576 131.409C143.642 131.381 143.707 131.351 143.773 131.32C143.781 131.316 143.793 131.31 143.803 131.308C143.825 131.298 143.85 131.286 143.874 131.276C143.884 131.27 143.894 131.268 143.904 131.262C143.928 131.252 143.948 131.242 143.972 131.232C143.985 131.226 143.995 131.222 144.005 131.218C144.031 131.205 144.059 131.193 144.085 131.181C144.089 131.179 144.097 131.175 144.103 131.173C144.136 131.159 144.17 131.143 144.202 131.129C144.21 131.125 144.218 131.121 144.226 131.119C144.248 131.107 144.275 131.097 144.299 131.087C144.309 131.081 144.323 131.075 144.335 131.068C144.355 131.06 144.373 131.05 144.394 131.042C144.41 131.036 144.422 131.03 144.438 131.022C144.456 131.014 144.472 131.008 144.49 131C144.504 130.992 144.52 130.986 144.535 130.98C144.551 130.972 144.567 130.964 144.583 130.958C144.613 130.944 144.647 130.927 144.678 130.915C144.69 130.909 144.706 130.901 144.718 130.895C144.738 130.887 144.754 130.879 144.774 130.871C144.786 130.865 144.798 130.859 144.811 130.853C144.831 130.845 144.851 130.835 144.869 130.827C144.881 130.823 144.893 130.817 144.903 130.813C144.925 130.801 144.946 130.792 144.968 130.782C144.97 130.782 144.972 130.78 144.974 130.78C145.054 130.742 145.137 130.706 145.22 130.668C145.222 130.668 145.226 130.666 145.23 130.664C145.256 130.651 145.284 130.639 145.31 130.627L145.312 130.625C149.72 128.615 154.01 126.483 158.168 124.237C161.394 138.67 153.534 150.42 140.844 150.42ZM177.392 115.922C175.813 115.922 174.209 115.793 172.63 115.604C180.191 110.621 187.18 105.212 193.498 99.4093C193.293 101.873 192.61 104.734 191.066 108.087C188.195 114.322 182.941 115.922 177.392 115.922ZM211.123 79.8062C214.558 75.0837 217.598 70.1799 220.205 65.1109C220.036 64.7462 219.865 64.3816 219.693 64.0189C222.159 63.5253 224.424 63.2775 226.483 63.2775C228.431 63.2775 230.196 63.4991 231.77 63.9444C234.399 73.9736 227.39 76.4175 211.123 79.8062Z" fill="#539256"/>
<path d="M92.9655 168.327C92.893 168.327 92.8192 168.325 92.7441 168.325C96.8015 166.545 100.437 163.652 103.228 159.744C106.933 154.557 110.4 152.684 114.353 152.684C115.216 152.684 116.106 152.773 117.025 152.939C114.784 154.104 112.586 156.103 110.356 159.221C106.427 164.724 100.417 168.035 93.8692 168.307C93.5675 168.32 93.2672 168.327 92.9655 168.327Z" fill="#A4E3AD"/>
<path d="M155.222 160.649C164.139 156.536 167.564 145.282 164.91 131.764C163.858 126.405 166.191 125.071 170.154 125.071C170.299 125.071 170.444 125.071 170.59 125.075C169.887 125.383 169.271 125.822 168.752 126.419C166.689 128.798 167.473 132.358 168.243 134.828C170.882 143.298 169.469 151.58 164.557 156.445C162.025 158.953 158.837 160.368 155.222 160.649ZM190.415 126.161C189.918 126.161 189.409 126.148 188.892 126.124C193.604 125.424 197.894 123.166 200.521 117.457C209.742 97.4257 190.03 93.9279 213.559 89.158C229.713 85.8836 239.567 84.1068 242.925 79.1446C243.16 81.2027 242.712 82.3052 242.292 83.0002C239.992 86.8269 231.258 88.5912 218.041 91.2616L215.879 91.6981C208.34 93.2267 204.974 94.6891 203.467 97.0926C202.077 99.3038 202.67 101.629 203.295 104.092C204.222 107.731 205.374 112.259 201.955 119.689C199.656 124.68 195.615 126.161 190.415 126.161Z" fill="#A4E3AD"/>
<path d="M30.134 149.25C32.0766 149.25 33.5196 149.846 34.4281 151.029C36.1896 153.318 35.1524 156.514 33.9512 160.216C32.8529 163.599 31.6077 167.436 32.958 169.489C33.775 170.73 35.6802 171.498 38.6238 171.774C46.7179 172.531 51.8458 166.95 56.3692 162.023C59.8157 158.269 63.0612 154.703 67.2443 154.807C69.8773 154.859 72.4017 156.352 74.9612 159.371C80.0957 165.427 86.8114 168.603 93.8693 168.307C100.418 168.035 106.427 164.724 110.357 159.222C118.29 148.117 125.85 151.216 136.315 155.502C139.466 156.792 143.035 158.255 147.128 159.573C154.073 161.808 160.262 160.699 164.557 156.445C169.468 151.581 170.88 143.297 168.243 134.828C167.473 132.358 166.689 128.8 168.753 126.419C171.199 123.597 175.865 124.346 181.27 125.214C190.839 126.75 198.441 127.321 201.953 119.688C205.375 112.259 204.221 107.729 203.295 104.091C202.668 101.63 202.076 99.3033 203.465 97.0919C204.974 94.6896 208.339 93.2273 215.88 91.6978L218.041 91.2614C231.258 88.5906 239.991 86.8282 242.292 83.0014C242.867 82.0467 243.496 80.3305 242.345 76.4407C240.53 70.3165 237.842 66.5945 233.883 64.7294C227.83 61.8781 218.188 63.2292 205.23 68.745C198.548 71.5879 191.802 76.9799 183.993 83.2258C171.801 92.9692 156.63 105.1 133.869 113.958C107.255 124.316 76.0244 128.038 38.4012 125.34C36.3841 125.481 12.5273 127.424 9.74318 140.331C8.99019 143.824 9.23062 146.308 10.4586 147.716C12.8882 150.504 19.6918 149.988 25.6943 149.533C26.9815 149.434 28.3114 149.334 29.5849 149.264C29.7725 149.254 29.9555 149.25 30.134 149.25ZM40.1097 176.424C39.4872 176.424 38.8498 176.394 38.1966 176.333C33.7387 175.914 30.7737 174.498 29.1328 172.004C26.5747 168.115 28.2493 162.952 29.5963 158.803C30.125 157.172 30.9092 154.755 30.785 153.884C30.6359 153.849 30.3432 153.807 29.8323 153.836C28.6085 153.902 27.361 153.997 26.0401 154.097C18.6201 154.659 10.9456 155.242 7.00794 150.725C4.7477 148.134 4.17849 144.416 5.26802 139.366C8.89493 122.55 37.088 120.825 38.2858 120.76C38.3819 120.756 38.479 120.756 38.5751 120.764C122.161 126.794 156.244 99.5445 181.134 79.6486C189.205 73.195 196.177 67.6205 203.438 64.5321C217.85 58.3995 228.447 57.1092 235.834 60.5878C241.058 63.0509 244.522 67.6729 246.734 75.1399C247.984 79.3612 247.814 82.7034 246.215 85.3617C242.873 90.9152 233.868 92.7343 218.947 95.7492L216.79 96.1856C211.201 97.3185 208.025 98.4431 207.343 99.5278C207.013 100.05 207.278 101.173 207.733 102.962C208.719 106.84 210.211 112.699 206.113 121.604C200.866 132.998 188.636 131.034 180.544 129.734C177.535 129.253 172.989 128.519 172.213 129.417C172.185 129.446 171.592 130.185 172.613 133.466C175.811 143.728 174.002 153.534 167.777 159.699C162.291 165.135 154.251 166.676 145.723 163.93C141.464 162.559 137.807 161.06 134.58 159.739C124.203 155.487 119.908 153.728 114.083 161.882C109.327 168.542 102.028 172.55 94.0604 172.881C85.5559 173.233 77.5363 169.488 71.4693 162.332C69.831 160.4 68.3789 159.409 67.1528 159.385C67.1381 159.385 67.1224 159.385 67.1064 159.385C65.0082 159.385 62.4498 162.171 59.7412 165.12C55.3183 169.938 49.3634 176.424 40.1097 176.424Z" fill="#6D184E"/>
<path d="M138.626 133.547C175.644 118.077 205.156 94.388 220.203 65.1105C203.482 28.9581 167.166 3.72368 124.877 3.04172C66.1261 2.09628 17.248 49.2927 16.2236 108.043C16.0473 118.166 17.2846 127.968 19.7396 137.278C53.0384 154.134 95.8363 151.426 138.626 133.547Z" fill="#F9A332"/>
<path d="M139.439 4.26503H139.437H139.439ZM139.329 4.24957C139.326 4.24957 139.326 4.24737 139.324 4.24737C139.326 4.24737 139.326 4.24957 139.329 4.24957ZM139.271 4.24075C139.269 4.24075 139.271 4.24073 139.269 4.23852L139.271 4.24075ZM139.218 4.2319C139.216 4.2319 139.214 4.23191 139.209 4.2297C139.214 4.23191 139.216 4.2319 139.218 4.2319ZM139.158 4.22306H139.156H139.158ZM138.991 4.19878C138.988 4.19657 138.988 4.19658 138.986 4.19658C138.988 4.19658 138.988 4.19657 138.991 4.19878ZM138.715 4.15681C138.712 4.15681 138.71 4.15681 138.708 4.15681C138.71 4.15681 138.712 4.15681 138.715 4.15681ZM138.666 4.15019C138.659 4.15019 138.655 4.14799 138.651 4.14799C138.655 4.14799 138.659 4.15019 138.666 4.15019ZM138.611 4.14137C138.604 4.14137 138.598 4.13915 138.593 4.13915C138.6 4.14135 138.602 4.14137 138.611 4.14137ZM138.56 4.13472C138.549 4.13252 138.542 4.13253 138.531 4.13033C138.54 4.13253 138.551 4.13252 138.56 4.13472ZM138.505 4.1259C138.494 4.1259 138.485 4.12369 138.474 4.12148C138.485 4.12369 138.492 4.1237 138.505 4.1259ZM138.445 4.11706C138.434 4.11706 138.427 4.11486 138.416 4.11486C138.425 4.11486 138.434 4.11706 138.445 4.11706ZM138.386 4.11044C138.374 4.10823 138.37 4.10823 138.359 4.10602C138.368 4.10602 138.374 4.10823 138.386 4.11044ZM138.33 4.1016C138.319 4.09939 138.308 4.09941 138.297 4.0972C138.308 4.09941 138.317 4.09939 138.33 4.1016ZM138.271 4.09278C138.262 4.09278 138.251 4.09057 138.24 4.08836C138.253 4.09057 138.26 4.09278 138.271 4.09278ZM138.213 4.08394C138.204 4.08394 138.193 4.08174 138.185 4.08174C138.193 4.08174 138.204 4.08394 138.213 4.08394ZM138.154 4.07731C138.143 4.07511 138.136 4.0751 138.127 4.07289C138.136 4.0751 138.145 4.07511 138.154 4.07731ZM138.096 4.06847C138.085 4.06626 138.072 4.06628 138.061 4.06407C138.074 4.06628 138.083 4.06626 138.096 4.06847ZM138.039 4.06185C138.023 4.05743 138.01 4.05745 137.992 4.05303C138.01 4.05745 138.023 4.05743 138.039 4.06185ZM137.981 4.05303C137.962 4.05082 137.946 4.04861 137.926 4.04419C137.944 4.0464 137.964 4.05082 137.981 4.05303ZM137.913 4.04419C137.895 4.03977 137.882 4.03976 137.864 4.03535C137.88 4.03755 137.897 4.04198 137.913 4.04419ZM137.849 4.03535C137.836 4.03314 137.822 4.03093 137.805 4.02873C137.822 4.03093 137.833 4.03314 137.849 4.03535ZM137.787 4.02653C137.776 4.02432 137.761 4.02211 137.747 4.0199C137.763 4.02211 137.774 4.02432 137.787 4.02653ZM137.725 4.01768C137.712 4.01547 137.703 4.01326 137.69 4.01326C137.701 4.01326 137.714 4.01547 137.725 4.01768ZM137.668 4.00886C137.655 4.00665 137.643 4.00665 137.63 4.00444C137.643 4.00665 137.655 4.00665 137.668 4.00886ZM137.61 4.00222C137.597 4.00001 137.582 3.99781 137.571 3.9956C137.582 3.99781 137.599 4.00001 137.61 4.00222ZM137.555 3.9934C137.54 3.99119 137.526 3.99119 137.511 3.98898C137.526 3.99119 137.54 3.99119 137.555 3.9934ZM137.493 3.98678C137.48 3.98457 137.467 3.98234 137.451 3.98014C137.467 3.98234 137.48 3.98457 137.493 3.98678ZM137.436 3.97794C137.42 3.97573 137.407 3.97352 137.394 3.97131C137.407 3.97352 137.42 3.97573 137.436 3.97794ZM137.376 3.96909C137.361 3.96909 137.345 3.9669 137.332 3.96469C137.345 3.9669 137.363 3.96909 137.376 3.96909ZM137.319 3.96247C137.303 3.96026 137.29 3.95806 137.27 3.95585C137.288 3.95806 137.303 3.96026 137.319 3.96247ZM137.259 3.95365C137.239 3.95144 137.224 3.94922 137.204 3.94701C137.222 3.94922 137.242 3.95144 137.259 3.95365ZM137.204 3.94701C137.184 3.9448 137.164 3.9426 137.144 3.94039C137.164 3.9426 137.182 3.9448 137.204 3.94701ZM137.144 3.94039C137.023 3.92272 136.906 3.90727 136.784 3.89402C136.904 3.90727 137.023 3.92272 137.144 3.94039ZM136.78 3.8918C136.76 3.88959 136.745 3.88739 136.725 3.88518C136.74 3.88739 136.762 3.88959 136.78 3.8918ZM136.72 3.88518C136.7 3.88297 136.683 3.88077 136.663 3.87856C136.683 3.88077 136.703 3.88297 136.72 3.88518ZM136.663 3.87636C136.621 3.87194 136.583 3.86751 136.544 3.86309C136.583 3.86751 136.621 3.87194 136.663 3.87636ZM136.539 3.86309C136.522 3.85868 136.504 3.85648 136.482 3.85427C136.504 3.85648 136.519 3.85868 136.539 3.86309ZM136.482 3.85427C136.462 3.85206 136.444 3.84984 136.424 3.84763C136.442 3.84984 136.464 3.85206 136.482 3.85427ZM136.422 3.84763C133.152 3.44128 129.839 3.1829 126.487 3.07911C129.839 3.1829 133.154 3.44128 136.422 3.84763ZM126.484 3.07911C126.464 3.07911 126.445 3.07911 126.424 3.07911C126.444 3.07911 126.465 3.07911 126.484 3.07911ZM126.422 3.07911C126.402 3.0769 126.384 3.07691 126.363 3.07691C126.383 3.07691 126.403 3.0769 126.422 3.07911ZM126.361 3.07691C126.341 3.0747 126.324 3.07469 126.304 3.07469C126.32 3.07469 126.344 3.0747 126.361 3.07691ZM126.297 3.07469C126.281 3.07469 126.259 3.07249 126.244 3.07249C126.26 3.07249 126.28 3.07469 126.297 3.07469ZM126.235 3.07249C126.219 3.07249 126.197 3.07249 126.182 3.07029C126.198 3.07249 126.218 3.07249 126.235 3.07249ZM126.173 3.07029C126.153 3.07029 126.139 3.07029 126.118 3.07029C126.137 3.07029 126.154 3.07029 126.173 3.07029ZM126.114 3.07029C126.095 3.06808 126.075 3.06806 126.057 3.06806C126.074 3.06806 126.097 3.06808 126.114 3.07029ZM126.052 3.06806C125.928 3.06365 125.807 3.06145 125.684 3.05924C125.807 3.06145 125.928 3.06365 126.052 3.06806ZM125.676 3.05702C125.658 3.05702 125.639 3.05702 125.621 3.05702C125.641 3.05702 125.657 3.05702 125.676 3.05702ZM125.618 3.05702C125.596 3.05702 125.582 3.05482 125.562 3.05482C125.581 3.05482 125.598 3.05702 125.618 3.05702ZM125.55 3.05482C125.534 3.05482 125.517 3.05482 125.501 3.05482C125.518 3.05482 125.533 3.05482 125.55 3.05482ZM125.487 3.05482C125.472 3.05261 125.457 3.0526 125.441 3.0526C125.456 3.0526 125.473 3.05261 125.487 3.05482ZM125.425 3.0526C125.411 3.0526 125.396 3.0526 125.381 3.0526C125.395 3.0526 125.411 3.0526 125.425 3.0526ZM125.363 3.0504C125.35 3.0504 125.336 3.0504 125.324 3.0504C125.338 3.0504 125.349 3.0504 125.363 3.0504ZM125.3 3.0504C125.288 3.0504 125.275 3.05041 125.263 3.0482C125.275 3.05041 125.289 3.0504 125.3 3.0504ZM125.24 3.0482C125.228 3.0482 125.214 3.0482 125.202 3.0482C125.213 3.0482 125.228 3.0482 125.24 3.0482ZM125.18 3.0482C125.168 3.0482 125.154 3.04598 125.141 3.04598C125.155 3.04598 125.166 3.0482 125.18 3.0482ZM125.119 3.04598C125.106 3.04598 125.095 3.04598 125.083 3.04598C125.095 3.04598 125.107 3.04598 125.119 3.04598ZM125.058 3.04598C125.046 3.04598 125.033 3.04599 125.021 3.04378C125.032 3.04599 125.046 3.04598 125.058 3.04598ZM124.998 3.04378C124.982 3.04378 124.967 3.04378 124.952 3.04378C124.969 3.04378 124.981 3.04378 124.998 3.04378ZM124.938 3.04378C124.918 3.04378 124.899 3.04377 124.877 3.04156C124.897 3.04377 124.919 3.04378 124.938 3.04378ZM124.877 3.04156C124.824 3.04156 124.769 3.04157 124.716 3.03936C124.77 3.04157 124.823 3.04156 124.877 3.04156ZM122.321 3.03052C122.462 3.03052 122.602 3.02832 122.742 3.02832C122.757 3.02832 122.773 3.02832 122.789 3.02832C122.632 3.03053 122.478 3.03052 122.321 3.03052Z" fill="#FFF6AF"/>
<path d="M26.96 63.3328C44.2195 27.9873 80.4122 3.51377 121.92 3.04117C122.054 3.03675 122.186 3.03453 122.32 3.03233C122.478 3.03233 122.631 3.03013 122.788 3.03013C122.8 3.03013 122.81 3.03013 122.821 3.03013C122.935 3.03013 123.049 3.03013 123.165 3.03013C123.68 3.03013 124.197 3.03454 124.715 3.04117C124.768 3.04117 124.823 3.04337 124.877 3.04337C124.898 3.04337 124.917 3.04338 124.938 3.04559C124.942 3.04559 124.946 3.04559 124.951 3.04559C124.966 3.04559 124.982 3.04559 124.997 3.04559C125.004 3.04559 125.012 3.04559 125.02 3.04559C125.033 3.04559 125.045 3.04558 125.057 3.04779C125.064 3.04779 125.074 3.04779 125.082 3.04779C125.095 3.04779 125.105 3.04779 125.118 3.04779C125.125 3.04779 125.133 3.04779 125.14 3.04779C125.153 3.04779 125.167 3.0478 125.179 3.05001C125.187 3.05001 125.193 3.05001 125.201 3.05001C125.213 3.05001 125.227 3.05001 125.239 3.05001C125.247 3.05001 125.255 3.05001 125.262 3.05001C125.274 3.05001 125.287 3.05 125.299 3.05221C125.307 3.05221 125.316 3.05221 125.323 3.05221C125.335 3.05221 125.349 3.05221 125.362 3.05221C125.367 3.05221 125.375 3.05221 125.381 3.05221C125.395 3.05221 125.41 3.05441 125.425 3.05441C125.432 3.05441 125.434 3.05441 125.44 3.05441C125.456 3.05441 125.471 3.05441 125.487 3.05441C125.491 3.05441 125.496 3.05441 125.5 3.05441C125.516 3.05662 125.533 3.05663 125.549 3.05663C125.551 3.05663 125.559 3.05663 125.561 3.05663C125.582 3.05663 125.595 3.05662 125.617 3.05883H125.62C125.638 3.05883 125.657 3.05883 125.675 3.05883C125.678 3.05883 125.68 3.05883 125.683 3.05883C125.807 3.06325 125.927 3.06546 126.051 3.06987C126.053 3.06987 126.054 3.06987 126.056 3.06987C126.074 3.06987 126.095 3.06987 126.113 3.06987C126.115 3.06987 126.115 3.06987 126.117 3.06987C126.138 3.07208 126.152 3.07209 126.173 3.07209C126.175 3.07209 126.178 3.07209 126.182 3.07209C126.196 3.07209 126.218 3.0743 126.234 3.0743C126.236 3.0743 126.241 3.0743 126.243 3.0743C126.258 3.0743 126.28 3.07429 126.296 3.0765C126.3 3.0765 126.298 3.0765 126.303 3.0765C126.323 3.0765 126.34 3.07651 126.36 3.07872C126.362 3.07872 126.359 3.07651 126.362 3.07872C126.383 3.07872 126.401 3.07872 126.421 3.07872H126.423C126.444 3.08092 126.463 3.08092 126.483 3.08092C126.486 3.08092 126.482 3.08092 126.486 3.08092C129.838 3.18471 133.15 3.44309 136.421 3.84944H136.423C136.443 3.85164 136.461 3.85387 136.481 3.85608C136.503 3.85829 136.52 3.86049 136.54 3.8627L136.545 3.8649C136.582 3.86932 136.62 3.87374 136.662 3.87816C136.682 3.88258 136.699 3.88256 136.719 3.88698C136.721 3.88698 136.721 3.88698 136.724 3.88698C136.743 3.88919 136.759 3.8914 136.779 3.8936C136.781 3.8936 136.781 3.8936 136.783 3.8936C136.905 3.90906 137.024 3.92453 137.143 3.93999C137.163 3.94441 137.183 3.94661 137.203 3.94881C137.223 3.95102 137.238 3.95325 137.258 3.95546C137.26 3.95546 137.269 3.95766 137.271 3.95766C137.289 3.95987 137.302 3.96207 137.32 3.96428C137.324 3.96428 137.324 3.96429 137.331 3.9665C137.344 3.9665 137.36 3.96869 137.375 3.9709C137.382 3.97311 137.386 3.97312 137.393 3.97312C137.406 3.97533 137.419 3.97753 137.435 3.97974C137.439 3.97974 137.446 3.98194 137.45 3.98194C137.468 3.98415 137.479 3.98636 137.492 3.98636C137.497 3.98857 137.505 3.98858 137.51 3.98858C137.525 3.99079 137.539 3.993 137.554 3.9952C137.558 3.9952 137.565 3.9974 137.569 3.9974C137.58 3.99961 137.596 4.00182 137.609 4.00402C137.616 4.00402 137.622 4.00404 137.629 4.00624C137.642 4.00845 137.653 4.00846 137.667 4.01067C137.675 4.01287 137.68 4.01287 137.689 4.01287C137.702 4.01508 137.711 4.01728 137.724 4.01949C137.731 4.01949 137.739 4.02171 137.748 4.02171C137.759 4.02392 137.775 4.02611 137.786 4.02611C137.79 4.02832 137.801 4.02832 137.806 4.03053C137.821 4.03274 137.834 4.03274 137.85 4.03495C137.854 4.03716 137.859 4.03715 137.863 4.03715C137.881 4.03936 137.896 4.04158 137.912 4.04379C137.916 4.04379 137.923 4.04599 137.925 4.04599C137.945 4.0482 137.96 4.05042 137.98 4.05484C137.985 4.05484 137.987 4.05484 137.991 4.05484C138.009 4.05704 138.022 4.05925 138.04 4.06145C138.044 4.06366 138.053 4.06367 138.06 4.06588C138.071 4.06588 138.084 4.06807 138.097 4.07028C138.106 4.07248 138.117 4.07249 138.126 4.0747C138.137 4.0747 138.144 4.07692 138.152 4.07692C138.161 4.07913 138.175 4.08132 138.183 4.08132C138.194 4.08353 138.203 4.08574 138.212 4.08574C138.221 4.08795 138.23 4.08795 138.241 4.09016C138.25 4.09237 138.261 4.09237 138.27 4.09458C138.278 4.09679 138.289 4.09679 138.296 4.099C138.307 4.099 138.318 4.10119 138.329 4.1034C138.338 4.1034 138.349 4.10561 138.358 4.10782C138.369 4.10782 138.373 4.11005 138.384 4.11005C138.393 4.11226 138.406 4.11444 138.415 4.11444C138.426 4.11665 138.433 4.11887 138.444 4.11887C138.453 4.12107 138.464 4.12329 138.475 4.12329C138.484 4.1255 138.493 4.1255 138.504 4.12771C138.512 4.12992 138.521 4.12992 138.53 4.13213C138.541 4.13434 138.548 4.13432 138.559 4.13653C138.568 4.13653 138.583 4.13874 138.592 4.14095C138.596 4.14095 138.603 4.14317 138.61 4.14317C138.623 4.14538 138.636 4.14758 138.649 4.14979C138.654 4.14979 138.658 4.14978 138.665 4.15199C138.678 4.1542 138.694 4.1564 138.707 4.15861C138.709 4.15861 138.711 4.15861 138.713 4.15861C138.802 4.17186 138.897 4.18513 138.985 4.19838C138.987 4.19838 138.987 4.19838 138.989 4.19838C139.027 4.20501 139.065 4.20942 139.102 4.21605C139.12 4.21825 139.137 4.22045 139.155 4.22486H139.159C139.175 4.22707 139.193 4.2293 139.21 4.23151C139.212 4.23151 139.215 4.23371 139.217 4.23371C139.235 4.23592 139.248 4.23812 139.268 4.24033C139.27 4.24033 139.268 4.24033 139.27 4.24033C139.29 4.24474 139.303 4.24696 139.323 4.24917C139.325 4.24917 139.325 4.24917 139.327 4.24917C139.345 4.25359 139.365 4.25578 139.38 4.25799C139.4 4.2602 139.418 4.26463 139.436 4.26683H139.438C172.888 9.39033 201.229 30.019 216.906 58.5825C198.707 33.1638 170.389 15.4899 137.843 11.4287C137.154 15.3619 130.657 18.447 122.741 18.447C114.964 18.447 108.558 15.4701 107.681 11.6363C88.4894 14.3151 70.7429 21.7861 55.7344 32.806C55.7613 32.7552 55.7885 32.7067 55.8145 32.6559V32.6581C55.6575 32.8016 55.5014 32.9474 55.3455 33.0931C44.1731 41.368 34.5321 51.6216 26.96 63.3328Z" fill="#FCD199"/>
<path d="M138.624 133.548C138.658 133.533 138.692 133.52 138.725 133.505C138.692 133.52 138.656 133.533 138.624 133.548ZM138.753 133.494C138.778 133.483 138.8 133.475 138.825 133.464C138.799 133.475 138.78 133.483 138.753 133.494ZM138.857 133.45C138.881 133.439 138.909 133.429 138.931 133.419C138.907 133.429 138.882 133.439 138.857 133.45ZM138.957 133.409C138.991 133.394 139.02 133.381 139.054 133.367C139.023 133.381 138.99 133.395 138.957 133.409ZM139.059 133.366C139.094 133.351 139.128 133.337 139.164 133.322C139.129 133.337 139.094 133.351 139.059 133.366ZM139.17 133.319C139.201 133.306 139.235 133.293 139.266 133.278C139.233 133.293 139.202 133.306 139.17 133.319ZM139.285 133.271C139.316 133.259 139.342 133.247 139.373 133.234C139.343 133.246 139.314 133.259 139.285 133.271ZM139.387 133.227C139.421 133.213 139.454 133.2 139.487 133.185C139.455 133.2 139.421 133.213 139.387 133.227ZM139.49 133.184C139.564 133.153 139.631 133.124 139.703 133.093C139.633 133.124 139.562 133.153 139.49 133.184ZM139.712 133.09C139.744 133.077 139.777 133.062 139.809 133.049C139.775 133.062 139.746 133.077 139.712 133.09ZM139.819 133.044C139.962 132.984 140.102 132.924 140.245 132.864C140.102 132.924 139.962 132.984 139.819 133.044ZM140.248 132.861C140.571 132.723 140.889 132.586 141.212 132.448C140.891 132.586 140.569 132.724 140.248 132.861ZM141.217 132.445C141.359 132.384 141.499 132.324 141.641 132.262C141.5 132.322 141.358 132.385 141.217 132.445ZM141.646 132.259C141.786 132.199 141.927 132.137 142.068 132.075C141.927 132.137 141.786 132.199 141.646 132.259ZM142.077 132.071C142.215 132.011 142.358 131.948 142.497 131.888C142.356 131.949 142.218 132.009 142.077 132.071ZM142.507 131.883C142.537 131.87 142.57 131.855 142.601 131.841C142.572 131.855 142.537 131.87 142.507 131.883ZM142.61 131.838C142.713 131.792 142.82 131.745 142.923 131.7C142.82 131.745 142.714 131.792 142.61 131.838ZM142.936 131.694C142.968 131.679 142.993 131.669 143.024 131.654C142.996 131.667 142.965 131.681 142.936 131.694ZM143.042 131.647C143.076 131.632 143.106 131.619 143.14 131.604C143.106 131.619 143.077 131.632 143.042 131.647ZM143.14 131.603C143.209 131.572 143.28 131.541 143.349 131.512C143.28 131.541 143.209 131.572 143.14 131.603ZM143.366 131.503C143.394 131.491 143.423 131.478 143.45 131.466C143.423 131.478 143.394 131.491 143.366 131.503ZM143.469 131.457C143.498 131.444 143.525 131.432 143.554 131.419C143.528 131.432 143.497 131.444 143.469 131.457ZM143.573 131.41C143.641 131.381 143.705 131.352 143.771 131.322C143.705 131.352 143.641 131.381 143.573 131.41ZM143.802 131.309C143.826 131.297 143.848 131.287 143.873 131.277C143.849 131.287 143.824 131.299 143.802 131.309ZM143.904 131.264C143.926 131.253 143.949 131.243 143.971 131.233C143.948 131.243 143.927 131.252 143.904 131.264ZM144.003 131.218C144.03 131.206 144.056 131.195 144.083 131.183C144.058 131.193 144.028 131.208 144.003 131.218ZM144.102 131.174C144.133 131.159 144.169 131.143 144.2 131.13C144.168 131.145 144.134 131.159 144.102 131.174ZM144.225 131.12C144.25 131.108 144.272 131.098 144.297 131.087C144.274 131.098 144.249 131.109 144.225 131.12ZM144.334 131.07C144.353 131.061 144.372 131.052 144.392 131.043C144.372 131.052 144.353 131.061 144.334 131.07ZM144.436 131.024C144.454 131.017 144.47 131.008 144.489 131.001C144.47 131.008 144.454 131.015 144.436 131.024ZM144.533 130.98C144.548 130.973 144.566 130.966 144.582 130.958C144.564 130.966 144.55 130.973 144.533 130.98ZM144.676 130.916C144.69 130.908 144.704 130.904 144.717 130.897C144.705 130.902 144.689 130.91 144.676 130.916ZM144.773 130.872C144.784 130.867 144.799 130.86 144.809 130.854C144.798 130.86 144.784 130.866 144.773 130.872ZM144.868 130.828C144.88 130.823 144.892 130.817 144.902 130.813C144.892 130.817 144.88 130.823 144.868 130.828ZM144.965 130.783C144.968 130.783 144.971 130.782 144.972 130.781C144.971 130.782 144.968 130.783 144.965 130.783ZM145.218 130.669C145.22 130.668 145.223 130.667 145.228 130.665C145.225 130.666 145.22 130.668 145.218 130.669ZM145.309 130.628L145.312 130.626L145.309 130.628Z" fill="#5B6D54"/>
<path d="M70.0869 148.543C61.8968 148.543 53.9213 147.804 46.2474 146.29C42.4607 145.355 38.7509 144.228 35.135 142.889C28.4691 140.422 23.6948 134.509 22.6111 127.483C21.6936 121.532 21.2664 115.42 21.3749 109.189C21.898 79.1797 34.9134 52.1948 55.3462 33.0921C55.476 32.9949 55.6049 32.8996 55.7349 32.8044C47.9899 47.25 43.463 63.6686 43.1591 81.1082C43.1535 81.4364 43.1488 81.7645 43.1466 82.0927C42.9918 100.389 55.9993 116.109 73.9775 119.52C81.4017 120.928 89.1005 121.615 97.0025 121.615C118.825 121.615 142.196 116.374 165.561 106.612C182.143 99.6822 197.213 91.0971 210.157 81.1062C194.956 101.404 172.365 118.281 145.313 130.625L145.309 130.627C145.283 130.64 145.257 130.652 145.228 130.664C145.224 130.666 145.222 130.668 145.218 130.668C145.135 130.706 145.056 130.743 144.973 130.779C144.971 130.781 144.969 130.783 144.967 130.783C144.945 130.794 144.924 130.802 144.904 130.812C144.892 130.816 144.88 130.822 144.87 130.826C144.849 130.836 144.831 130.844 144.811 130.854C144.801 130.858 144.785 130.866 144.772 130.87C144.752 130.879 144.738 130.887 144.718 130.895C144.704 130.903 144.691 130.907 144.677 130.915C144.645 130.927 144.614 130.943 144.582 130.958C144.566 130.964 144.55 130.972 144.533 130.98C144.519 130.986 144.503 130.992 144.489 131C144.471 131.008 144.454 131.014 144.438 131.022C144.424 131.028 144.408 131.035 144.394 131.043C144.373 131.051 144.353 131.061 144.335 131.069C144.323 131.075 144.311 131.079 144.298 131.087C144.272 131.097 144.25 131.108 144.226 131.118C144.215 131.122 144.209 131.126 144.201 131.13C144.171 131.142 144.134 131.158 144.104 131.174C144.096 131.176 144.092 131.178 144.084 131.18C144.057 131.195 144.031 131.205 144.005 131.217C143.995 131.221 143.982 131.227 143.972 131.233C143.95 131.243 143.928 131.253 143.903 131.263C143.893 131.268 143.883 131.272 143.873 131.276C143.849 131.286 143.826 131.296 143.802 131.308C143.794 131.312 143.782 131.316 143.772 131.322C143.705 131.351 143.64 131.381 143.575 131.409C143.567 131.413 143.561 131.415 143.555 131.419C143.527 131.432 143.5 131.444 143.47 131.456C143.464 131.46 143.458 131.462 143.452 131.464C143.423 131.476 143.395 131.49 143.369 131.503C143.361 131.505 143.356 131.507 143.35 131.511C143.282 131.541 143.211 131.571 143.142 131.602H143.14C143.107 131.618 143.077 131.63 143.042 131.646C143.038 131.648 143.03 131.65 143.024 131.654C142.994 131.667 142.97 131.679 142.937 131.693C142.931 131.695 142.929 131.697 142.923 131.699C142.822 131.744 142.714 131.792 142.611 131.837C142.607 131.839 142.607 131.839 142.603 131.841C142.57 131.853 142.538 131.869 142.508 131.881C142.504 131.883 142.502 131.885 142.498 131.885C142.358 131.948 142.216 132.009 142.078 132.07C142.076 132.072 142.07 132.074 142.07 132.076C141.928 132.137 141.789 132.197 141.647 132.258C141.645 132.26 141.645 132.26 141.643 132.26C141.499 132.323 141.361 132.382 141.217 132.444C141.215 132.447 141.213 132.447 141.213 132.447C140.891 132.586 140.571 132.722 140.249 132.86L140.245 132.862C140.103 132.923 139.961 132.983 139.82 133.044C139.815 133.044 139.813 133.046 139.809 133.048C139.777 133.062 139.745 133.074 139.712 133.089C139.71 133.091 139.706 133.093 139.704 133.093C139.631 133.123 139.564 133.151 139.491 133.182C139.491 133.184 139.491 133.184 139.487 133.184C139.455 133.198 139.422 133.212 139.388 133.226C139.384 133.228 139.38 133.23 139.374 133.232C139.343 133.247 139.317 133.257 139.285 133.269C139.279 133.271 139.273 133.275 139.266 133.277C139.236 133.291 139.202 133.305 139.171 133.318C139.169 133.318 139.167 133.32 139.165 133.32C139.129 133.336 139.094 133.35 139.06 133.364C139.056 133.366 139.056 133.366 139.056 133.366C139.021 133.38 138.993 133.393 138.959 133.407C138.948 133.411 138.94 133.415 138.932 133.417C138.91 133.427 138.882 133.439 138.859 133.449C138.849 133.453 138.837 133.457 138.827 133.463C138.801 133.474 138.778 133.482 138.754 133.494C138.744 133.496 138.734 133.502 138.726 133.504C138.691 133.52 138.659 133.532 138.624 133.546C115.264 143.309 91.9051 148.543 70.0869 148.543Z" fill="#BF6700"/>
<path d="M55.3457 33.091C55.5016 32.945 55.6576 32.8011 55.8147 32.6572V32.6552C55.7885 32.7059 55.7616 32.7545 55.7344 32.8052C55.6045 32.9005 55.4756 32.9957 55.3457 33.091Z" fill="#D19982"/>
<path d="M70.6677 43.8993C69.5603 47.3811 67.6473 49.9293 66.4291 49.5427C65.2111 49.1541 65.1207 45.9708 66.228 42.487C67.3342 39.0052 69.2484 36.4569 70.4666 36.8436C71.6079 37.2082 71.773 40.0329 70.8428 43.3164L70.6677 43.8993Z" fill="#FCE69F"/>
<path d="M88.7451 46.1425C88.1203 49.7446 86.5699 52.5278 85.3099 52.3091C84.0511 52.0905 83.5291 48.9475 84.1539 45.3473C84.7799 41.7451 86.3303 38.9619 87.5891 39.1806C88.77 39.3854 89.3157 42.1625 88.8399 45.5421L88.7451 46.1425Z" fill="#FCE69F"/>
<path d="M112.083 45.419C112.592 49.0389 111.97 52.1638 110.704 52.3407C109.437 52.5196 107.978 49.6869 107.469 46.0671C106.961 42.4492 107.585 39.3243 108.849 39.1474C110.036 38.9804 111.407 41.4553 111.99 44.8187L112.083 45.419Z" fill="#FCE69F"/>
<path d="M131.6 37.9351C133.534 41.0358 134.23 44.1446 133.147 44.821C132.063 45.4974 129.578 43.5005 127.646 40.3998C125.71 37.2991 125.013 34.1903 126.097 33.5139C127.114 32.88 129.372 34.5873 131.267 37.4247L131.6 37.9351Z" fill="#FCE69F"/>
<path d="M146.567 25.5235C149.16 28.1016 150.548 30.9687 149.645 31.8756C148.743 32.7803 145.872 31.4043 143.281 28.8262C140.69 26.2481 139.3 23.381 140.202 22.4742C141.048 21.626 143.635 22.7716 146.131 25.1005L146.567 25.5235Z" fill="#FCE69F"/>
<path d="M73.0745 103.002C71.858 103.002 70.875 102.017 70.875 100.802C70.875 99.5854 71.858 98.6008 73.0745 98.6008C74.2895 98.6008 75.2741 99.5854 75.2741 100.802C75.2741 102.017 74.2895 103.002 73.0745 103.002Z" fill="#BF6700"/>
<path d="M108.562 82.0992C107.348 82.0992 106.362 81.1137 106.362 79.899C106.362 78.6825 107.348 77.6971 108.562 77.6971C109.777 77.6971 110.763 78.6825 110.763 79.899C110.763 81.1137 109.777 82.0992 108.562 82.0992Z" fill="#BF6700"/>
<path d="M115.834 104.997C114.617 104.997 113.634 104.012 113.634 102.798C113.634 101.583 114.617 100.597 115.834 100.597C117.048 100.597 118.033 101.583 118.033 102.798C118.033 104.012 117.048 104.997 115.834 104.997Z" fill="#E99335"/>
<path d="M137.066 78.0638C135.851 78.0638 134.867 77.0786 134.867 75.8627C134.867 74.6485 135.851 73.6633 137.066 73.6633C138.282 73.6633 139.268 74.6485 139.268 75.8627C139.268 77.0786 138.282 78.0638 137.066 78.0638Z" fill="#E99335"/>
<path d="M159.781 96.0711C158.566 96.0711 157.58 95.0857 157.58 93.8722C157.58 92.6554 158.566 91.6716 159.781 91.6716C160.997 91.6716 161.983 92.6554 161.983 93.8722C161.983 95.0857 160.997 96.0711 159.781 96.0711Z" fill="#BF6700"/>
<path d="M162.724 62.7785C161.509 62.7785 160.524 61.7936 160.524 60.5789C160.524 59.3623 161.509 58.3774 162.724 58.3774C163.941 58.3774 164.924 59.3623 164.924 60.5789C164.924 61.7936 163.941 62.7785 162.724 62.7785Z" fill="#BF6700"/>
<path d="M178.54 43.9234C177.325 43.9234 176.339 42.9391 176.339 41.7245C176.339 40.51 177.325 39.5237 178.54 39.5237C179.754 39.5237 180.741 40.51 180.741 41.7245C180.741 42.9391 179.754 43.9234 178.54 43.9234Z" fill="#BF6700"/>
<path d="M73.5146 80.1506C72.2999 80.1506 71.3145 79.1655 71.3145 77.9495C71.3145 76.7353 72.2999 75.7502 73.5146 75.7502C74.7304 75.7502 75.7159 76.7353 75.7159 77.9495C75.7159 79.1655 74.7304 80.1506 73.5146 80.1506Z" fill="#E99335"/>
<path d="M200.122 64.6471C198.907 64.6471 197.923 63.6627 197.923 62.4479C197.923 61.2332 198.907 60.2469 200.122 60.2469C201.339 60.2469 202.323 61.2332 202.323 62.4479C202.323 63.6627 201.339 64.6471 200.122 64.6471Z" fill="#BF6700"/>
<path d="M185.855 88.6759C184.641 88.6759 183.654 87.6895 183.654 86.4748C183.654 85.2601 184.641 84.2755 185.855 84.2755C187.07 84.2755 188.055 85.2601 188.055 86.4748C188.055 87.6895 187.07 88.6759 185.855 88.6759Z" fill="#E99335"/>
<path d="M123.132 5.31801C66.274 5.31801 19.5065 51.0664 18.5122 108.084C18.4069 114.132 18.8217 120.207 19.7461 126.14C20.6997 132.264 24.8717 137.4 30.636 139.546C60.5549 150.675 98.592 147.793 137.742 131.434C170.984 117.544 196.795 97.6715 212.381 73.9628C215.942 68.5508 216.096 61.4943 212.773 55.9888C193.996 24.852 161.123 5.91441 124.841 5.33138C124.271 5.32246 123.7 5.31801 123.132 5.31801ZM70.0335 150.841C55.3118 150.841 41.5664 148.496 29.0391 143.836C21.7247 141.115 16.4302 134.603 15.2218 126.843C14.2578 120.655 13.8247 114.315 13.9347 108.004C14.4407 78.9832 26.2944 51.8163 47.3124 31.5102C68.3249 11.2107 95.8845 0.270966 124.914 0.75386C143.728 1.0565 162.207 6.23262 178.358 15.7214C194.04 24.9365 207.297 38.0437 216.694 53.6233C220.92 60.6309 220.729 69.6012 216.209 76.4774C200.118 100.952 173.594 121.416 139.506 135.658C119.759 143.911 100.347 148.856 81.8079 150.356C77.819 150.679 73.8924 150.841 70.0335 150.841Z" fill="#6D184E"/>
<path d="M188.849 218.342C187.531 225.456 180.693 230.153 173.579 228.834C166.466 227.514 161.767 220.677 163.089 213.563C163.863 209.383 165.538 210.332 168.272 211.281C170.19 211.948 172.627 212.614 175.639 211.507C184.239 208.349 190.168 211.228 188.849 218.342Z" fill="#FCAF15"/>
<path d="M173.555 228.829H173.554H173.555ZM182.319 219.783C182.64 218.985 182.885 218.144 183.049 217.266C183.658 213.983 182.708 211.615 180.678 210.313C181.127 210.27 181.56 210.25 181.98 210.25C186.9 210.25 189.778 213.141 188.862 218.263C189.155 216.627 189.048 215.225 188.624 214.063C187.133 216.354 184.894 218.463 182.319 219.783ZM188.853 218.316C188.853 218.314 188.855 218.31 188.855 218.307C188.855 218.31 188.853 218.313 188.853 218.316ZM188.859 218.291C188.859 218.282 188.86 218.274 188.862 218.265C188.86 218.274 188.859 218.282 188.859 218.291Z" fill="#FED78A"/>
<path d="M173.578 228.834C173.571 228.832 173.564 228.831 173.556 228.83C173.563 228.831 173.571 228.832 173.578 228.834ZM188.012 221.114C188.385 220.242 188.668 219.314 188.849 218.342C188.851 218.334 188.852 218.325 188.854 218.316C188.852 218.325 188.851 218.333 188.849 218.342C188.668 219.314 188.385 220.242 188.012 221.114Z" fill="#D18126"/>
<path d="M163.09 213.563C163.09 213.559 163.09 213.554 163.092 213.549C163.09 213.554 163.09 213.559 163.09 213.563Z" fill="#6D184E"/>
<path d="M173.555 228.83C166.454 227.5 161.769 220.67 163.088 213.563C163.088 213.56 163.089 213.555 163.089 213.551C163.494 211.388 164.139 210.607 165.05 210.486C166.367 215.124 169.965 220.088 175.027 221.027C175.631 221.139 176.233 221.192 176.835 221.192C178.732 221.192 180.601 220.662 182.319 219.783C180.403 224.538 175.846 227.736 170.742 227.956C171.627 228.342 172.564 228.643 173.555 228.83ZM188.854 218.307C188.856 218.303 188.857 218.297 188.857 218.291C188.857 218.297 188.856 218.303 188.854 218.307ZM188.863 218.265C188.863 218.265 188.863 218.264 188.863 218.263C188.863 218.264 188.863 218.265 188.863 218.265Z" fill="#D18126"/>
<path d="M176.065 229.056C181.27 229.022 185.977 225.877 188.012 221.114C185.977 225.878 181.27 229.023 176.065 229.056Z" fill="#D3B392"/>
<path d="M175.983 229.056C175.191 229.056 174.385 228.983 173.579 228.834C173.57 228.832 173.563 228.831 173.556 228.83H173.555C172.566 228.643 171.628 228.341 170.742 227.956C175.848 227.736 180.402 224.538 182.32 219.783C184.895 218.463 187.134 216.354 188.624 214.063C189.048 215.225 189.156 216.627 188.864 218.263C188.864 218.264 188.864 218.265 188.864 218.265C188.861 218.274 188.861 218.282 188.859 218.291C188.857 218.297 188.857 218.302 188.855 218.307C188.855 218.31 188.854 218.314 188.854 218.316C188.852 218.325 188.85 218.334 188.848 218.342C188.67 219.314 188.385 220.241 188.013 221.114C185.977 225.877 181.269 229.022 176.067 229.056C176.037 229.056 176.011 229.056 175.983 229.056Z" fill="#D29D78"/>
<path d="M165.642 212.811C165.559 213.028 165.447 213.393 165.338 213.982C164.812 216.821 165.422 219.695 167.056 222.076C168.692 224.455 171.157 226.056 173.996 226.583C176.836 227.109 179.709 226.5 182.09 224.863C184.471 223.229 186.07 220.764 186.598 217.925C186.856 216.533 186.892 214.646 185.604 213.558C183.938 212.152 180.423 212.191 176.427 213.657C172.325 215.165 169.073 214.002 166.92 213.232C166.513 213.087 165.996 212.901 165.642 212.811ZM176.001 231.347C175.058 231.347 174.108 231.26 173.159 231.084C169.12 230.335 165.612 228.057 163.283 224.668C160.955 221.28 160.086 217.189 160.836 213.147C161.129 211.571 161.676 209.642 163.333 208.689C165.049 207.7 166.862 208.35 168.463 208.922C170.351 209.596 172.304 210.294 174.85 209.36C180.553 207.265 185.548 207.52 188.556 210.059C190.874 212.015 191.777 215.106 191.098 218.76C190.35 222.802 188.071 226.31 184.683 228.638C182.089 230.42 179.082 231.347 176.001 231.347Z" fill="#6D184E"/>
<path d="M205.885 128.112C206.81 128.537 207.891 128.428 208.768 127.914C212.39 125.786 223.959 118.754 225.907 114.606C228.079 109.981 199.347 125.109 205.885 128.112Z" fill="#E5525F"/>
</g>
<defs>
<filter id="filter0_d_8102_1474" x="0.732422" y="0.738525" width="261.408" height="239.918" filterUnits="userSpaceOnUse" color-interpolation-filters="sRGB">
<feFlood flood-opacity="0" result="BackgroundImageFix"/>
<feColorMatrix in="SourceAlpha" type="matrix" values="0 0 0 0 0 0 0 0 0 0 0 0 0 0 0 0 0 0 127 0" result="hardAlpha"/>
<feOffset dy="4"/>
<feGaussianBlur stdDeviation="2"/>
<feComposite in2="hardAlpha" operator="out"/>
<feColorMatrix type="matrix" values="0 0 0 0 0 0 0 0 0 0 0 0 0 0 0 0 0 0 0.25 0"/>
<feBlend mode="normal" in2="BackgroundImageFix" result="effect1_dropShadow_8102_1474"/>
<feBlend mode="normal" in="SourceGraphic" in2="effect1_dropShadow_8102_1474" result="shape"/>
</filter>
</defs>
</svg>
